<?xml version="1.0" encoding="iso-8859-1"?>
<!-- Generator: Adobe Illustrator 19.0.0, SVG Export Plug-In . SVG Version: 6.00 Build 0)  -->
<svg version="1.1" id="Layer_1" xmlns="http://www.w3.org/2000/svg" xmlns:xlink="http://www.w3.org/1999/xlink" x="0px" y="0px"
	 viewBox="0 0 512 512" style="enable-background:new 0 0 512 512;" xml:space="preserve">
<circle style="fill:#273B7A;" cx="256" cy="256" r="256"/>
<path style="fill:#121149;" d="M508.182,300.229L346.379,138.426l-77.162-17.753l-81.886,19.825l-49.993,69.818L89.614,323.932
	l187.221,187.221C393.695,501.739,488.391,413.851,508.182,300.229z"/>
<path style="fill:#FEE187;" d="M142.222,248.242c0-62.838,50.94-113.778,113.778-113.778s113.778,50.94,113.778,113.778
	c0,4.968-0.353,9.852-0.971,14.653h28.667c0.493-4.818,0.748-9.706,0.748-14.653c0-78.548-63.676-142.222-142.222-142.222
	s-142.222,63.674-142.222,142.222c0,4.948,0.255,9.835,0.748,14.653h28.667C142.576,258.095,142.222,253.211,142.222,248.242z"/>
<g>
	<path style="fill:#FF7F4F;" d="M410.577,330.128h-12.333c-7.933,0-14.365-6.432-14.365-14.365v-50.569
		c0-7.933,6.432-14.365,14.365-14.365h12.333c7.933,0,14.365,6.432,14.365,14.365v50.569
		C424.943,323.696,418.511,330.128,410.577,330.128z"/>
	<path style="fill:#FF7F4F;" d="M113.755,330.128h-12.333c-7.933,0-14.365-6.432-14.365-14.365v-50.569
		c0-7.933,6.432-14.365,14.365-14.365h12.333c7.933,0,14.365,6.432,14.365,14.365v50.569
		C128.121,323.696,121.689,330.128,113.755,330.128z"/>
</g>
<g>
	<path style="fill:#E03A00;" d="M383.879,289.904v25.859c0,7.933,6.432,14.365,14.365,14.365h12.333
		c7.933,0,14.365-6.432,14.365-14.365v-25.859L383.879,289.904L383.879,289.904z"/>
	<path style="fill:#E03A00;" d="M87.057,289.904v25.859c0,7.933,6.432,14.365,14.365,14.365h12.333
		c7.933,0,14.365-6.432,14.365-14.365v-25.859L87.057,289.904L87.057,289.904z"/>
</g>
<g>
	<path style="fill:#71E2EF;" d="M394.2,341.333h-22.125c-7.933,0-14.365-6.432-14.365-14.365v-72.98
		c0-7.933,6.432-14.365,14.365-14.365H394.2c7.933,0,14.365,6.432,14.365,14.365v72.98
		C408.566,334.901,402.134,341.333,394.2,341.333z"/>
	<path style="fill:#71E2EF;" d="M139.924,341.333H117.8c-7.933,0-14.365-6.432-14.365-14.365v-72.98
		c0-7.933,6.432-14.365,14.365-14.365h22.125c7.933,0,14.365,6.432,14.365,14.365v72.98
		C154.29,334.901,147.858,341.333,139.924,341.333z"/>
</g>
<g>
	<path style="fill:#38C6D9;" d="M357.71,289.904v37.064c0,7.933,6.432,14.365,14.365,14.365h22.123
		c7.933,0,14.365-6.432,14.365-14.365v-37.064L357.71,289.904L357.71,289.904z"/>
	<path style="fill:#38C6D9;" d="M103.434,289.904v37.064c0,7.933,6.432,14.365,14.365,14.365h22.123
		c7.933,0,14.365-6.432,14.365-14.365v-37.064L103.434,289.904L103.434,289.904z"/>
</g>
<g>
</g>
<g>
</g>
<g>
</g>
<g>
</g>
<g>
</g>
<g>
</g>
<g>
</g>
<g>
</g>
<g>
</g>
<g>
</g>
<g>
</g>
<g>
</g>
<g>
</g>
<g>
</g>
<g>
</g>
</svg>
